<?xml version="1.0" encoding="utf-8"?>
<!-- Generator: Adobe Illustrator 26.0.2, SVG Export Plug-In . SVG Version: 6.00 Build 0)  -->
<svg version="1.1" id="Layer_1" xmlns="http://www.w3.org/2000/svg" xmlns:xlink="http://www.w3.org/1999/xlink" x="0px" y="0px"
	 width="30px" height="30px" viewBox="0 0 30 30" style="enable-background:new 0 0 30 30;" xml:space="preserve">
<style type="text/css">
	.st0{fill:url(#SVGID_1_);}
	.st1{opacity:0.5;}
	.st2{fill:#0D4970;}
	.st3{opacity:8.000000e-02;}
	.st4{fill:#FFFFFF;}
	.st5{fill-rule:evenodd;clip-rule:evenodd;fill:#1F6A9C;}
	.st6{fill-rule:evenodd;clip-rule:evenodd;fill:#F0F0F0;}
</style>
<g>
	
		<radialGradient id="SVGID_1_" cx="-880.3668" cy="447.9155" r="1" gradientTransform="matrix(19.5581 0 0 -19.5581 17226.3926 8764.4277)" gradientUnits="userSpaceOnUse">
		<stop  offset="0" style="stop-color:#6DB1DE"/>
		<stop  offset="1" style="stop-color:#2073AA"/>
	</radialGradient>
	<path class="st0" d="M9.5,0h12c5,0,9,4,9,9v12c0,5-4,9-9,9h-12c-5,0-9-4-9-9V9C0.5,4,4.5,0,9.5,0z"/>
</g>
<g class="st1">
	<circle class="st2" cx="15.5" cy="21" r="6"/>
</g>
<g class="st3">
	<path class="st4" d="M0.5,9c0-5,4-9,9-9h12c5,0,9,4,9,9v12c0,5-4,9-9,9h-12c-5,0-9-4-9-9V9z"/>
</g>
<path class="st5" d="M25,14.7l-8.9-6.7c-0.4-0.3-0.9-0.3-1.3,0l-8.9,6.7c-0.6,0.4-0.6,1.3,0,1.7l8.9,6.7c0.4,0.3,0.9,0.3,1.3,0
	l6.7-5.1v0.9l-1.1,0.9c-0.1,0.1-0.1,0.3,0,0.4l1.1,0.9v0.5c0,0.2,0.1,0.3,0.3,0.3h0c0.2,0,0.3-0.1,0.3-0.3V21l1.1-0.8
	c0.1-0.1,0.1-0.3,0-0.4L23.4,19v-1.4l1.6-1.2C25.6,15.9,25.6,15.1,25,14.7z M19.1,16.1l-3.2,2.4c-0.3,0.2-0.6,0.2-0.9,0l-0.3-0.3
	c-0.1,0-0.1-0.1-0.2,0l-1.1,0.5c-0.2,0.1-0.3,0-0.2-0.2l0.4-0.9c0-0.1,0-0.2-0.1-0.3l-1.7-1.3c-0.4-0.3-0.4-0.8,0-1.1l3.2-2.4
	c0.3-0.2,0.6-0.2,0.9,0l3.2,2.4C19.5,15.3,19.5,15.8,19.1,16.1z M23.4,20.4l0.4-0.3c0.1-0.1,0.1-0.2,0-0.2l-0.4-0.3l-0.2-0.2
	c-0.1,0-0.1,0-0.2,0l-0.2,0.2l-0.4,0.3c-0.1,0.1-0.1,0.2,0,0.2l0.4,0.3l0.2,0.2c0.1,0,0.1,0,0.2,0L23.4,20.4z"/>
<path class="st6" d="M25,13.7L16.1,7c-0.4-0.3-0.9-0.3-1.3,0l-8.9,6.7c-0.6,0.4-0.6,1.3,0,1.7l8.9,6.7c0.4,0.3,0.9,0.3,1.3,0
	l6.7-5.1v1.5l-1.1,0.9c-0.1,0.1-0.1,0.3,0,0.4l1.1,0.9v0.5c0,0.2,0.1,0.3,0.3,0.3h0c0.2,0,0.3-0.1,0.3-0.3v-0.5l1.1-0.8
	c0.1-0.1,0.1-0.3,0-0.4l-1.1-0.8v-2l1.6-1.2C25.6,15,25.6,14.1,25,13.7z M19.1,15.1l-3.2,2.4c-0.3,0.2-0.6,0.2-0.9,0l-0.3-0.3
	c-0.1,0-0.1-0.1-0.2,0l-1.1,0.5c-0.2,0.1-0.3,0-0.2-0.2l0.4-0.9c0-0.1,0-0.2-0.1-0.3l-1.7-1.3c-0.4-0.3-0.4-0.8,0-1.1l3.2-2.4
	c0.3-0.2,0.6-0.2,0.9,0l3.2,2.4C19.5,14.3,19.5,14.9,19.1,15.1z M23.4,20l0.4-0.3c0.1-0.1,0.1-0.2,0-0.2l-0.4-0.3L23.2,19
	c-0.1,0-0.1,0-0.2,0l-0.2,0.2l-0.4,0.3c-0.1,0.1-0.1,0.2,0,0.2l0.4,0.3l0.2,0.2c0.1,0,0.1,0,0.2,0L23.4,20z"/>
</svg>
